<svg xmlns="http://www.w3.org/2000/svg" viewBox="0 0 1698.197 720.7"><defs/><defs><clipPath id="a" clipPathUnits="userSpaceOnUse"><path d="M0 2000h2000V0H0z"/></clipPath></defs><g clip-path="url(#a)" transform="matrix(1.33333 0 0 -1.33333 -533.09 1624.738)"><path fill="#545f57" d="M662.36 887.878c76.852 13.453 165.854 40.625 225.89 100.133 42.948 42.438 63.652 95.223 63.652 137.916 0 43.467-21.48 76.332-62.878 76.332-13.454 0-29.24-3.626-46.837-11.386-64.162-28.21-130.666-172.065-179.826-302.995m-42.693-49.68c-9.054-35.451-17.334-67.532-23.291-93.41 11.13 33.384 26.133 77.889 43.73 126.01l-11.64.775c-2.851-11.385-5.957-22.508-8.8-33.375m93.922 368.196c4.664 0 8.28-4.918 9.573-18.108-16.296-58.998-61.056-188.37-91.853-305.582l13.973 2.332c49.943 133.772 119.799 291.09 188.115 321.103 19.4 8.535 36.735 12.415 52.002 12.415 49.424 0 77.106-40.361 77.106-92.627 0-45.544-20.96-100.142-66.76-145.422-59.251-58.733-150.585-87.708-227.172-102.2 135.84-12.68 291.609-51.238 291.609-92.117 0-1.55-.264-3.362-.783-4.911-1.804-2.85-4.655-4.663-7.497-4.663-2.332 0-4.664 1.293-6.476 4.663-19.147 55.372-177.24 83.829-290.571 87.973h-.52c-18.107-49.68-37.254-94.96-48.64-129.117-12.68-38.038-20.695-62.104-26.907-62.104-3.362.52-5.174 2.852-5.174 7.25v1.814c1.293 16.296 16.295 77.88 35.96 153.692 2.588 9.573 4.92 19.666 7.762 29.759-47.867-5.957-82.8-6.213-87.973-6.213h-5.173l-.775 4.4v1.548c0 4.664 3.362 8.026 9.829 10.093 8.025 2.852 22.253 4.145 40.625 4.145h4.919c12.415 0 26.388-.784 41.654-1.813 31.052 117.987 67.797 241.146 84.093 300.663 1.038 3.625 1.557 5.693 1.557 6.468 0 .254 0 .519-.264.519-1.813 0-16.296-35.452-16.296-35.452-1.557-1.813-3.625-2.842-5.692-2.842-3.881 0-7.251 3.106-7.251 8.016.264.264 23.29 46.318 37 46.318"/><path fill="#545f57" d="M984.921 961.358c-12.415 0-34.158-28.2-34.158-34.148 0-.785.52-1.294 1.558-1.294 4.918 0 20.44 12.415 36.745 34.15-1.294 1.037-2.587 1.292-4.145 1.292m4.4-17.07c-20.44-19.41-43.732-41.144-54.854-41.144-.264 0-.774.255-1.293.255-2.85.52-4.919 2.076-6.732 4.145-2.067 2.586-2.84 5.692-2.84 9.308 0 1.303 0 2.597.254 3.89.52 4.136 2.067 9.31 4.663 14.483 7.497 16.56 23.547 35.971 43.467 41.918a47.891 47.891 0 0013.974 2.07c8.015 0 13.972-2.588 17.853-6.469 7.761 6.468 16.815 12.944 21.733 12.944.775 0 1.548-.265 2.068-.519 3.361-.52 5.174-3.88 5.174-9.574 0-6.213-2.068-15.01-6.467-26.133-2.843-7.77-4.136-14.237-4.136-19.41 0-13.455 8.535-18.374 21.214-18.374 32.855 0 93.921 34.678 102.984 46.064 1.55 3.106 3.362 4.136 4.911 4.136 2.331 0 3.88-2.069 3.88-4.919 0-1.549-.51-3.097-1.804-4.655-3.106-4.4-72.45-45.025-112.822-45.025-16.559 0-28.2 6.986-28.2 26.397 0 5.174.774 11.122 2.586 18.372 1.558 9.83 4.92 18.883 4.92 20.96v.255s-3.88-3.625-9.838-9.318c1.038-3.097 1.038-6.203 1.038-7.76v-1.03c-2.332-3.37-5.428-4.919-8.28-4.919-1.029 0-2.067.255-3.106.774l-.774 2.332c-3.625-3.625-5.174-4.919-9.574-9.054"/><path fill="#545f57" d="M1273.588 1062.794c-27.171-26.652-69.864-112.558-102.465-153.702-12.424-15.266-20.184-23.027-23.801-23.027-1.557 0-2.332 1.558-2.332 4.145 0 2.322.52 5.429 1.549 9.309 18.117 70.383 44.25 141.022 58.742 162.492h15.267l25.35 2.076c8.798.775 18.636 1.549 29.239 2.323zm-26.396 98.839c.263 0 .518-.52.518-1.293 0-6.212-12.68-38.813-30.787-60.81 18.892 46.063 28.2 62.103 30.269 62.103m233.394-73.49c-.52.265-2.068.265-4.4.265-21.478 0-112.038-7.506-172.584-12.68.196.269-.178-.195.023.08-7.663-1.726-14.775-2.407-22.661-3.201-1.491-.151-2.908.246-4.186.94-12.654-.98-22.008-1.72-26.736-2.218l-25.878-1.038c-4.91-.255-9.828-.775-14.483-1.03l.51.775c17.343 23.8 49.424 66.238 49.424 89.266 0 6.73-2.85 11.905-9.318 14.228h-1.03c-15.266 0-27.69-23.801-59.771-98.576l-3.106-7.505c-46.837-3.362-83.837-4.4-111-4.4-16.05 0-28.72.255-37.783 1.038v.255c0 6.732-6.722 8.28-10.867 8.28h-1.548c-4.145 0-10.348-1.548-10.348-5.43 0-.518.255-1.037.51-1.556 1.813-4.4 25.879-5.948 58.998-5.948 31.57 0 71.676 1.294 109.45 2.067-21.733-51.747-41.144-106.345-49.943-161.972-.51-3.106-.774-5.693-.774-8.28 0-11.65 5.174-16.05 11.65-16.05 4.91 0 10.867 2.852 15.522 6.732 29.239 25.614 79.692 133.772 107.894 167.666-19.468-47.407-37.367-98.97-49.104-145.477 1.979-.31 3.922-1.13 5.456-2.491.262 1.175.453 2.366.733 3.538 5.003 20.98 11.264 41.598 17.64 62.193 10.413 33.64 21.756 65.964 45.214 92.805v.002c.082.332.248.624.366.936.11.39.274.733.43 1.104.023.044.032.094.056.137.136.269.28.522.439.775.342.523.339.979.79 1.416.405.41.877.854 1.375 1.172.385.24.733.586 1.173.764l.085.036c.197.1.409.17.623.255.923.4 1.959.829 3.06.829.36 0 1.24.134 1.579.102l.098.02c68.316 4.136 150.596 7.497 150.596 7.497-.775-1.03-1.04-2.322-1.04-3.361 0-4.135 3.372-7.505 7.507-7.505 1.039 0 2.068.264 3.36.783 0 0 23.547 7.76 23.547 18.108 0 1.558-.52 3.106-1.548 4.655"/><path fill="#545f57" d="M1331.493 1161.633c.264 0 .52-.519.52-1.293 0-6.212-12.68-38.813-30.789-60.81 18.892 46.062 28.201 62.103 30.27 62.103m-44.81-206.398c-10.864-17.519-21.514-33.847-31.258-46.144-12.425-15.265-20.186-23.026-23.802-23.026-1.558 0-2.332 1.558-2.332 4.145 0 2.322.52 5.428 1.55 9.308 16.404 63.721 39.335 127.48 54.294 154.94.152.52.408.976.644 1.463a9.504 9.504 0 001.453 3.026c.392.986.843 1.941 1.298 2.874.007.021.02.035.025.055.062.123.112.26.173.382.397.797.895 1.535 1.346 2.303.066.082.09.191.16.271.428.717.803 1.462 1.261 2.158a98.891 98.891 0 007.48 9.93c.286.33.73.455 1.071.72 17.842 24.433 43.87 60.91 43.87 81.661 0 6.732-2.85 11.906-9.319 14.228h-1.029c-15.265 0-27.69-23.8-59.77-98.575l-3.108-7.506c-.027-.002-.054-.004-.079-.004-.608-1.567-1.143-3.165-1.797-4.714-.314-1.125-.875-2.104-1.55-3.015-21.388-51.146-40.42-105.032-49.104-159.932-.51-3.107-.774-5.693-.774-8.28 0-11.65 5.173-16.05 11.65-16.05 4.91 0 10.867 2.851 15.521 6.731 12.957 11.352 30.073 38.9 47.571 68.991a10.417 10.417 0 00-5.445 4.06"/><path fill="#545f57" d="M1330.006 961.358c-12.415 0-34.158-28.2-34.158-34.148 0-.785.519-1.294 1.557-1.294 4.919 0 20.44 12.415 36.746 34.15-1.293 1.037-2.587 1.292-4.145 1.292m4.399-17.07c-20.44-19.41-43.731-41.144-54.852-41.144-.265 0-.775.255-1.294.255-2.851.52-4.92 2.076-6.732 4.145-2.067 2.586-2.841 5.692-2.841 9.308 0 1.303 0 2.597.255 3.89.519 4.136 2.068 9.31 4.664 14.483 7.496 16.56 23.537 35.971 43.466 41.918a47.89 47.89 0 0013.973 2.07c8.017 0 13.974-2.588 17.854-6.469 7.76 6.468 16.815 12.944 21.733 12.944.774 0 1.549-.265 2.068-.519 3.362-.52 5.174-3.88 5.174-9.574 0-6.213-2.068-15.01-6.468-26.133-2.841-7.77-4.134-14.237-4.134-19.41 0-13.455 8.534-18.374 21.214-18.374 32.864 0 93.92 34.678 102.984 46.064 1.548 3.106 3.36 4.136 4.909 4.136 2.332 0 3.88-2.069 3.88-4.919 0-1.549-.51-3.097-1.803-4.655-3.106-4.4-72.451-45.025-112.821-45.025-16.561 0-28.201 6.986-28.201 26.397 0 5.174.774 11.122 2.587 18.372 1.557 9.83 4.919 18.883 4.919 20.96v.255s-3.881-3.625-9.83-9.318c1.03-3.097 1.03-6.203 1.03-7.76v-1.03c-2.331-3.37-5.43-4.919-8.28-4.919-1.038 0-2.067.255-3.106.774l-.774 2.332c-3.625-3.625-5.174-4.919-9.574-9.054"/><path fill="#545f57" d="M1498.295 926.17c14.492 18.893 29.239 35.189 40.625 35.189 5.174 0 9.573-3.107 12.935-10.348 11.385-26.133 25.094-36.226 40.879-36.226 20.44 0 44.77 17.334 72.453 37.52 1.038 1.293 2.33 1.557 3.36 1.557 2.587 0 4.919-2.587 4.919-4.92 0-1.292-.775-2.585-2.332-3.36-20.694-16.305-51.747-39.596-79.947-39.596-17.6 0-34.16 9.063-46.055 35.452-.783 2.332-2.076 3.36-3.625 3.36-13.198 0-51.237-53.295-51.747-58.732-1.558-3.362-6.477-5.174-10.611-5.174-3.626 0-6.732 1.548-6.732 4.919v1.029l25.104 100.396c1.294 5.174 5.173 7.506 9.053 7.506 4.656 0 9.319-3.37 9.319-9.318v-.52z"/><path fill="#9e9d9c" d="M470.437 718.098l-70.619 10.657v21.739h99.463v-14.777h-71.329l71.329-10.8v-14.776l-70.334-11.651h70.334v-13.641h-99.463v21.74zM467.737 783.884v15.062l-50.3-7.532zm31.544 35.664v-15.771l-18.045-2.701v-19.181l18.045-2.7v-14.351l-99.463 15.914v22.876zM414.027 849.528h71.045v8.81c0 4.973-2.558 7.957-9.662 7.957h-51.72c-7.105 0-9.663-2.984-9.663-7.957zm-14.209-15.63v24.724c0 15.63 8.667 23.302 24.582 23.302h50.3c15.913 0 24.581-7.672 24.581-23.302v-24.724zM441.735 914.605v21.455h14.209v-21.455h29.128v26.997h14.209v-42.627h-99.463v42.627h14.209v-26.997zM446.282 1022.165l53-5.684v-21.456l-99.463-11.082v15.203l78.433 8.384-78.433 7.531v15.061l79.002 7.815-79.002 8.099v13.641l99.463-11.083v-20.745zM399.818 1090.224h99.463v-15.63h-99.463zM399.818 1104.147v48.311h14.21v-16.341h85.253v-15.63h-85.254v-16.34zM499.281 1182.01v-15.63h-99.463v15.63h42.627v17.762h-42.627v15.914h99.463v-15.914h-42.627v-17.761z"/></g></svg>