<?xml version="1.0" encoding="UTF-8" standalone="no"?>
<svg
   xmlns:dc="http://purl.org/dc/elements/1.1/"
   xmlns:cc="http://creativecommons.org/ns#"
   xmlns:rdf="http://www.w3.org/1999/02/22-rdf-syntax-ns#"
   xmlns:svg="http://www.w3.org/2000/svg"
   xmlns="http://www.w3.org/2000/svg"
   xmlns:sodipodi="http://sodipodi.sourceforge.net/DTD/sodipodi-0.dtd"
   xmlns:inkscape="http://www.inkscape.org/namespaces/inkscape"
   width="45.219227mm"
   height="10.735767mm"
   viewBox="0 0 45.219227 10.735767"
   version="1.1"
   id="svg9320"
   inkscape:version="1.0.2 (1.0.2+r75+1)"
   sodipodi:docname="main-logo.svg">
  <defs
     id="defs9314" />
  <sodipodi:namedview
     id="base"
     pagecolor="#ffffff"
     bordercolor="#666666"
     borderopacity="1.0"
     inkscape:pageopacity="0.0"
     inkscape:pageshadow="2"
     inkscape:zoom="3.959798"
     inkscape:cx="69.839785"
     inkscape:cy="8.4174043"
     inkscape:document-units="mm"
     inkscape:current-layer="layer1"
     inkscape:document-rotation="0"
     showgrid="false"
     inkscape:window-width="1920"
     inkscape:window-height="1052"
     inkscape:window-x="0"
     inkscape:window-y="0"
     inkscape:window-maximized="1" />
  <metadata
     id="metadata9317">
    <rdf:RDF>
      <cc:Work
         rdf:about="">
        <dc:format>image/svg+xml</dc:format>
        <dc:type
           rdf:resource="http://purl.org/dc/dcmitype/StillImage" />
        <dc:title></dc:title>
      </cc:Work>
    </rdf:RDF>
  </metadata>
  <g
     inkscape:label="Layer 1"
     inkscape:groupmode="layer"
     id="layer1"
     transform="translate(113.32398,3.1000261)">
    <path
       style="fill:#f8ebc7;fill-opacity:1;fill-rule:nonzero;stroke:none;stroke-width:0.352778"
       d="M -102.33109,3.3934808 V 2.7223761 l -0.25218,0.095085 c -0.42995,0.1667429 -0.8282,0.4506186 -0.8282,0.8392255 0,0.3555337 0.20946,0.5553496 0.45062,0.5553496 0.34589,0 0.62976,-0.2521811 0.62976,-0.818555 m -3.16811,0.7344944 c 0,-1.4152451 1.81488,-1.6150609 2.60174,-2.1704104 0.27285,-0.1887912 0.45061,-0.4092773 0.45061,-0.7344943 0,-0.28387575 -0.14607,-0.47266691 -0.39825,-0.47266691 -0.28387,0 -0.46164,0.23151043 -0.53468,0.47266691 -0.20946,0.6600804 -0.53467,0.9232858 -1.02801,0.9232858 -0.44097,0 -0.8599,-0.2728518 -0.8599,-0.8392256 0,-0.5457028 0.65044,-1.31189244 2.44326,-1.31189244 1.91961,0 2.61276,1.03904104 2.65411,2.83324674 v 1.3215388 c 0,0.6187391 0.398247,0.4078993 0.398247,0.8488716 0,0.3141927 -0.398247,0.5553495 -1.090027,0.5553495 -0.81855,0 -1.23886,-0.429948 -1.23886,-0.9012369 v -0.06339 h -0.062 c -0.29352,0.5773981 -0.82958,0.9549804 -1.80523,0.9549804 -1.05833,0 -1.531,-0.7758356 -1.531,-1.4166233"
       id="path1331" />
    <path
       style="fill:#f8ebc7;fill-opacity:1;fill-rule:nonzero;stroke:none;stroke-width:0.352778"
       d="m -99.445475,5.0402367 c 0,-0.398253 0.39963,-0.4189237 0.39963,-0.8392253 V 0.01866518 c 0,-0.48231358 -0.16812,-0.6090931 -0.325219,-0.73449432 -0.136426,-0.0950849 -0.263204,-0.1777672 -0.263204,-0.39825336 0,-0.4203016 1.395953,-0.7868599 2.024338,-0.7868599 0.504363,0 0.766191,0.2728517 0.766191,0.5870445 v 5.5149093 c 0,0.4203016 0.398251,0.4409723 0.398251,0.8392253 0,0.3775823 -0.345888,0.4092773 -0.712445,0.4092773 h -1.573721 c -0.366557,0 -0.713821,-0.031694 -0.713821,-0.4092773"
       id="path1333" />
    <path
       style="fill:#f8ebc7;fill-opacity:1;fill-rule:nonzero;stroke:none;stroke-width:0.352778"
       d="m -96.033454,5.0402367 c 0,-0.398253 0.398254,-0.4189237 0.398254,-0.8392253 V 0.01866518 c 0,-0.48231358 -0.168123,-0.6090931 -0.325218,-0.73449432 -0.136427,-0.0950849 -0.261829,-0.1777672 -0.261829,-0.39825336 0,-0.4203016 1.394577,-0.7868599 2.024342,-0.7868599 0.502983,0 0.766187,0.2728517 0.766187,0.5870445 v 5.5149093 c 0,0.4203016 0.398255,0.4409723 0.398255,0.8392253 0,0.3775823 -0.345888,0.4092773 -0.713825,0.4092773 h -1.572341 c -0.367937,0 -0.713825,-0.031694 -0.713825,-0.4092773"
       id="path1335" />
    <path
       style="fill:#f8ebc7;fill-opacity:1;fill-rule:nonzero;stroke:none;stroke-width:0.352778"
       d="M -92.210775,2.7747417 V 1.2547654 h -0.241159 c -0.2508,-0.011024 -0.440972,-0.1791451 -0.440972,-0.47266719 0,-0.41892364 0.252183,-0.51400819 0.556729,-0.51400819 h 0.147451 c 1.394573,0 1.069357,-1.80385202 1.792827,-1.80385202 0.31557,0 0.377582,0.2315104 0.377582,0.73449431 v 1.06935771 h 0.912262 c 0.293522,0 0.525032,0.10473091 0.525032,0.4506186 0,0.34726568 -0.136426,0.53605678 -0.577398,0.53605678 h -0.848872 v 2.8732098 c 0,0.3679363 0.05237,0.5457031 0.282497,0.5457031 0.508498,0 0.585668,-0.4189236 0.345888,-0.5911783 -0.253559,-0.183279 -0.312815,-0.6669705 0.1695,-0.9660048 0.54157,-0.3348634 1.044553,0.3679363 1.044553,0.9026148 0,0.9122616 -0.447862,1.6412437 -1.905829,1.6412437 -2.160764,0 -2.140091,-1.7528647 -2.140091,-2.885612"
       id="path1337" />
    <path
       style="fill:#f8ebc7;fill-opacity:1;fill-rule:nonzero;stroke:none;stroke-width:0.352778"
       d="m -76.443262,2.062296 h 1.405601 c 0.02067,-0.074414 0.03168,-0.1570965 0.03168,-0.2411568 0,-0.315571 -0.115757,-0.8089085 -0.691776,-0.8089085 -0.493338,0 -0.745518,0.5457031 -0.745518,1.0500653 m 3.283864,1.7308161 c 0,0.1460719 -0.03168,0.2935221 -0.08406,0.4506183 -0.23151,0.6614583 -0.964625,1.3422094 -2.181433,1.3422094 -1.794207,0 -2.906282,-1.0169924 -2.906282,-2.6113826 0,-1.6784508 1.080382,-2.90490469 2.831867,-2.90490469 1.480012,0 2.349556,0.95360249 2.349556,1.81349839 0,0.6711047 -0.282497,0.9549804 -0.923286,0.9549804 h -2.295811 c 0.177765,0.7661893 0.660079,1.1534183 1.415246,1.1534183 0.420299,0 0.713821,-0.084061 1.091406,-0.4823135 0.104729,-0.104731 0.219107,-0.1570962 0.325215,-0.1570962 0.209462,0 0.377582,0.1777668 0.377582,0.4409722"
       id="path1339" />
    <path
       style="fill:#f8ebc7;fill-opacity:1;fill-rule:nonzero;stroke:none;stroke-width:0.352778"
       d="m -72.708777,4.2010114 c 0,-0.3458876 0.282497,-0.6394097 0.607712,-0.6394097 0.94396,0 1.02802,1.0597113 1.564076,1.0597113 0.198438,0 0.334864,-0.095085 0.334864,-0.3141927 0,-0.2728517 -0.188793,-0.5043622 -0.985298,-0.8709202 -0.913642,-0.4189236 -1.373904,-0.8392256 -1.373904,-1.6991214 0,-1.11207668 1.058334,-1.68947481 2.211751,-1.68947481 1.468988,0 2.244824,0.60909275 2.244824,1.30086811 0,0.3458877 -0.282497,0.6407877 -0.607716,0.6407877 -0.943956,0 -0.912259,-0.9549804 -1.553048,-0.9549804 -0.177768,0 -0.304546,0.1047309 -0.304546,0.2728514 0,0.2508031 0.05374,0.3982533 1.007347,0.8709202 0.881944,0.4395943 1.427646,0.8695422 1.427646,1.7294381 0,0.9963218 -0.913639,1.6894751 -2.328884,1.6894751 -1.468988,0 -2.244824,-0.7027997 -2.244824,-1.3959527"
       id="path1341" />
    <path
       style="fill:#f8ebc7;fill-opacity:1;fill-rule:nonzero;stroke:none;stroke-width:0.352778"
       d="M -84.296702,3.3907246 V 2.7099739 l -0.254935,0.096462 c -0.436842,0.1694988 -0.839227,0.457509 -0.839227,0.8488715 0,0.3624242 0.212217,0.563618 0.456131,0.563618 0.351399,0 0.638031,-0.2549374 0.638031,-0.8282013 m 2.765725,2.1028866 c -0.577399,-0.5663738 0.768942,-1.2526367 0.992187,0.1887911 0.243911,1.5750979 -1.136883,2.2131297 -2.224154,1.8575956 -0.786861,-0.2590712 -1.300869,-0.8530057 -1.300869,-1.9650824 V 4.6020203 h -0.06339 c -0.297657,0.5842883 -0.839227,0.9660051 -1.82728,0.9660051 -1.073492,0 -1.550293,-0.785482 -1.550293,-1.4331598 0,-1.4345381 1.836925,-1.6357315 2.633434,-2.1993494 0.276983,-0.1915471 0.457507,-0.4147895 0.457507,-0.7441404 0,-0.28663192 -0.148827,-0.47817933 -0.403765,-0.47817933 -0.288011,0 -0.468535,0.23426633 -0.542946,0.47817933 -0.210841,0.6697265 -0.541571,0.9356878 -1.04042,0.9356878 -0.446486,0 -0.87092,-0.2769856 -0.87092,-0.8516275 0,-0.55121532 0.658703,-1.32705096 2.474955,-1.32705096 1.944413,0 2.645834,1.05144329 2.688555,2.86907556 V 5.672756 c 0,0.8116648 1.080382,0.315571 0.577399,-0.1791448"
       id="path1343" />
    <path
       style="fill:#f8ebc7;fill-opacity:1;fill-rule:nonzero;stroke:none;stroke-width:0.352778"
       d="m -80.443706,4.8610915 c -0.46991,-0.6035806 -0.821312,-0.3073023 -0.821312,-0.7317384 v -4.55303847 c 0,-0.48920333 -0.169499,-0.18603491 -0.32935,-0.31281443 -0.137806,-0.0964629 -0.264583,-0.1805231 -0.264583,-0.4037655 0,-0.4244354 1.412487,-0.7965059 2.049141,-0.7965059 0.511253,0 0.777216,0.2756076 0.777216,0.5953125 v 5.6458228 c 0,0.425814 0.402385,0.4464844 0.402385,0.8502495 0,0.3817169 -0.350023,0.4134118 -0.72209,0.4134118 h -0.508498 c -0.372071,0 -0.23289,-0.2590715 -0.582909,-0.7069339"
       id="path1345" />
    <path
       style="fill:#f8ebc7;fill-opacity:1;fill-rule:nonzero;stroke:none;stroke-width:0.352778"
       d="m -103.17996,-1.272557 c -0.18879,0.66145842 -0.6463,1.02526053 -1.31052,1.14514994 -0.49058,0.0895724 -0.97978,0.03169356 -1.46623,-0.0427193 -0.0909,-0.0124037 -0.18052,-0.027559 -0.28801,-0.0440972 -0.003,0.0730363 -0.008,0.12815783 -0.008,0.18327936 0,1.5461588 0.004,4.2994794 0.004,4.2994794 0,0.4203016 0.39825,0.4409723 0.39825,0.8392253 0,0.3775823 -0.34589,0.4092772 -0.71245,0.4092772 h -1.57372 c -0.36793,0 -0.71382,-0.031694 -0.71382,-0.4092772 0,-0.398253 0.39825,-0.4189237 0.39825,-0.8392253 0,0 0.008,-3.1984267 0.008,-4.93613326 v -0.18327901 c -0.0248,-0.0165347 -0.04,-0.0330729 -0.0579,-0.039963 -0.65594,-0.22324243 -1.31189,-0.45061863 -2.00091,-0.55121533 -0.34038,-0.049609 -0.67937,-0.059256 -1.01699,0.027563 -0.72072,0.1805231 -1.13137,0.97151695 -0.85163,1.64262168 0.14332,0.34313144 0.42719,0.51814239 0.75379,0.46439881 0.16536,-0.0275625 0.29903,-0.11713316 0.41203,-0.23426668 0.10749,-0.11162101 0.19982,-0.23564428 0.30593,-0.35002155 0.10197,-0.1088651104 0.20257,-0.22048612 0.31832,-0.31557068 0.17915,-0.14745018 0.39274,-0.20946181 0.62425,-0.1846573 0.52504,0.0578778 0.81718,0.56775177 0.6091,1.05695545 -0.12265,0.29076616 -0.34589,0.49058157 -0.61737,0.63114137 -0.5705,0.2976562 -1.17822,0.4189236 -1.81763,0.3293512 -0.68488,-0.096462 -1.15617,-0.4850695 -1.39595,-1.12999137 -0.35278,-0.95084624 -0.0896,-2.52043193 1.10657,-3.22874343 0.37206,-0.2204861 0.77859,-0.3307292 1.20854,-0.3582903 0.64492,-0.042719 1.26779,0.079926 1.87413,0.2866319 0.72347,0.245291 1.39044,0.6104711 2.05879,0.9756515 0.47542,0.2590708 0.95773,0.508496 1.44418,0.7510308 0.22186,0.11024305 0.46164,0.18327899 0.71245,0.19705955 0.0978,0.004135 0.19843,0.002752 0.29352,-0.0110243 0.27836,-0.0385854 0.42995,-0.21910815 0.42581,-0.50160635 -0.15434,-0.6435436 1.12035,-0.9095049 0.87506,0.1212674"
       id="path1347" />
  </g>
</svg>
